<?xml version="1.0" standalone="no"?>
<svg xmlns:xlink="http://www.w3.org/1999/xlink" id="wave" style="transform:rotate(0deg); transition: 0.3s" viewBox="0 0 1440 140" version="1.1" xmlns="http://www.w3.org/2000/svg"><defs><linearGradient id="sw-gradient-0" x1="0" x2="0" y1="1" y2="0"><stop stop-color="rgba(111.933, 0, 0, 1)" offset="0%"/><stop stop-color="rgba(255, 0, 0, 1)" offset="100%"/></linearGradient></defs><path style="transform:translate(0, 0px); opacity:1" fill="url(#sw-gradient-0)" d="M0,84L40,72.3C80,61,160,37,240,30.3C320,23,400,33,480,44.3C560,56,640,70,720,63C800,56,880,28,960,16.3C1040,5,1120,9,1200,25.7C1280,42,1360,70,1440,84C1520,98,1600,98,1680,84C1760,70,1840,42,1920,39.7C2000,37,2080,61,2160,77C2240,93,2320,103,2400,88.7C2480,75,2560,37,2640,18.7C2720,0,2800,0,2880,18.7C2960,37,3040,75,3120,74.7C3200,75,3280,37,3360,39.7C3440,42,3520,84,3600,100.3C3680,117,3760,107,3840,100.3C3920,93,4000,89,4080,93.3C4160,98,4240,112,4320,102.7C4400,93,4480,61,4560,46.7C4640,33,4720,37,4800,44.3C4880,51,4960,61,5040,56C5120,51,5200,33,5280,28C5360,23,5440,33,5520,44.3C5600,56,5680,70,5720,77L5760,84L5760,140L5720,140C5680,140,5600,140,5520,140C5440,140,5360,140,5280,140C5200,140,5120,140,5040,140C4960,140,4880,140,4800,140C4720,140,4640,140,4560,140C4480,140,4400,140,4320,140C4240,140,4160,140,4080,140C4000,140,3920,140,3840,140C3760,140,3680,140,3600,140C3520,140,3440,140,3360,140C3280,140,3200,140,3120,140C3040,140,2960,140,2880,140C2800,140,2720,140,2640,140C2560,140,2480,140,2400,140C2320,140,2240,140,2160,140C2080,140,2000,140,1920,140C1840,140,1760,140,1680,140C1600,140,1520,140,1440,140C1360,140,1280,140,1200,140C1120,140,1040,140,960,140C880,140,800,140,720,140C640,140,560,140,480,140C400,140,320,140,240,140C160,140,80,140,40,140L0,140Z"/></svg>